<svg width="42" height="42" viewBox="0 0 42 42" fill="none" xmlns="http://www.w3.org/2000/svg">
<path d="M8.02083 31.6251C9.79167 30.2709 11.7708 29.2032 13.9583 28.422C16.1458 27.6407 18.4375 27.2501 20.8333 27.2501C23.2292 27.2501 25.5208 27.6407 27.7083 28.422C29.8958 29.2032 31.875 30.2709 33.6458 31.6251C34.8611 30.2015 35.8073 28.5869 36.4844 26.7813C37.1615 24.9758 37.5 23.0487 37.5 21.0001C37.5 16.382 35.8767 12.4497 32.6302 9.20321C29.3837 5.95668 25.4514 4.33342 20.8333 4.33342C16.2153 4.33342 12.283 5.95668 9.03646 9.20321C5.78993 12.4497 4.16667 16.382 4.16667 21.0001C4.16667 23.0487 4.50521 24.9758 5.18229 26.7813C5.85938 28.5869 6.80556 30.2015 8.02083 31.6251ZM20.8333 23.0834C18.7847 23.0834 17.0573 22.3803 15.651 20.974C14.2448 19.5678 13.5417 17.8404 13.5417 15.7917C13.5417 13.7431 14.2448 12.0157 15.651 10.6095C17.0573 9.20321 18.7847 8.50008 20.8333 8.50008C22.8819 8.50008 24.6094 9.20321 26.0156 10.6095C27.4219 12.0157 28.125 13.7431 28.125 15.7917C28.125 17.8404 27.4219 19.5678 26.0156 20.974C24.6094 22.3803 22.8819 23.0834 20.8333 23.0834ZM20.8333 41.8334C17.9514 41.8334 15.2431 41.2865 12.7083 40.1928C10.1736 39.099 7.96875 37.6147 6.09375 35.7397C4.21875 33.8647 2.73438 31.6598 1.64063 29.1251C0.546875 26.5904 0 23.882 0 21.0001C0 18.1181 0.546875 15.4098 1.64063 12.8751C2.73438 10.3404 4.21875 8.1355 6.09375 6.2605C7.96875 4.3855 10.1736 2.90112 12.7083 1.80737C15.2431 0.713623 17.9514 0.166748 20.8333 0.166748C23.7153 0.166748 26.4236 0.713623 28.9583 1.80737C31.4931 2.90112 33.6979 4.3855 35.5729 6.2605C37.4479 8.1355 38.9323 10.3404 40.026 12.8751C41.1198 15.4098 41.6667 18.1181 41.6667 21.0001C41.6667 23.882 41.1198 26.5904 40.026 29.1251C38.9323 31.6598 37.4479 33.8647 35.5729 35.7397C33.6979 37.6147 31.4931 39.099 28.9583 40.1928C26.4236 41.2865 23.7153 41.8334 20.8333 41.8334ZM20.8333 37.6668C22.6736 37.6668 24.4097 37.3977 26.0417 36.8595C27.6736 36.3213 29.1667 35.5487 30.5208 34.5418C29.1667 33.5348 27.6736 32.7622 26.0417 32.224C24.4097 31.6858 22.6736 31.4168 20.8333 31.4168C18.9931 31.4168 17.2569 31.6858 15.625 32.224C13.9931 32.7622 12.5 33.5348 11.1458 34.5418C12.5 35.5487 13.9931 36.3213 15.625 36.8595C17.2569 37.3977 18.9931 37.6668 20.8333 37.6668ZM20.8333 18.9167C21.7361 18.9167 22.4826 18.6216 23.0729 18.0313C23.6632 17.4411 23.9583 16.6945 23.9583 15.7917C23.9583 14.889 23.6632 14.1424 23.0729 13.5522C22.4826 12.9619 21.7361 12.6667 20.8333 12.6667C19.9306 12.6667 19.184 12.9619 18.5938 13.5522C18.0035 14.1424 17.7083 14.889 17.7083 15.7917C17.7083 16.6945 18.0035 17.4411 18.5938 18.0313C19.184 18.6216 19.9306 18.9167 20.8333 18.9167Z" fill="#1C1B1F"/>
</svg>
